<svg width="70" height="70" viewBox="0 0 70 70" fill="none" xmlns="http://www.w3.org/2000/svg">
<path d="M46.0748 67.4142V8.34504C46.0748 6.91687 44.9171 5.75928 43.4889 5.75928H7.37605C5.94788 5.75928 4.79028 6.91701 4.79028 8.34504V67.4142C4.79028 68.8424 5.94802 70 7.37605 70H43.4891C44.9171 70 46.0748 68.8423 46.0748 67.4142Z" fill="#0D0E43"/>
<path d="M51.9671 5.75928H43.313C44.7412 5.75928 45.8989 6.91701 45.8989 8.34504V67.4142C45.8989 68.8424 44.7412 70 43.313 70H51.9671C53.3953 70 54.553 68.8423 54.553 67.4142V8.34518C54.553 6.91701 53.3953 5.75928 51.9671 5.75928Z" fill="#0D0E43"/>
<path d="M9.01709 64.8494V10.9101C9.01709 10.3996 9.43094 9.98584 9.94131 9.98584H49.4027C49.9132 9.98584 50.3269 10.3997 50.3269 10.9101V64.8494C50.3269 65.3599 49.9131 65.7737 49.4027 65.7737H9.94131C9.4308 65.7737 9.01709 65.3599 9.01709 64.8494Z" fill="#F5F5F5"/>
<path d="M49.402 9.98584H40.7478C41.2583 9.98584 41.672 10.3997 41.672 10.9101V64.8494C41.672 65.3599 41.2582 65.7737 40.7478 65.7737H49.402C49.9125 65.7737 50.3262 65.3598 50.3262 64.8494V10.9101C50.3262 10.3997 49.9125 9.98584 49.402 9.98584Z" fill="#EAEAEA"/>
<path d="M35.1648 3.21809V1.85678C35.1648 0.831387 34.3335 0 33.308 0H26.035C25.0094 0 24.1782 0.831387 24.1782 1.85678V3.21809C24.1782 3.6374 23.8382 3.97742 23.4188 3.97742H20.3919C19.385 3.97742 18.5686 4.79377 18.5686 5.8007V9.98566H40.7743V5.8007C40.7743 4.79377 39.958 3.97742 38.951 3.97742H35.9241C35.5048 3.97742 35.1648 3.6374 35.1648 3.21809Z" fill="#C2D0DA"/>
<path d="M14.3931 24.9912V16.8512C14.3931 15.9494 15.1242 15.2183 16.026 15.2183H24.166C25.0678 15.2183 25.799 15.9494 25.799 16.8512V24.9912C25.799 25.893 25.0678 26.6242 24.166 26.6242H16.026C15.1241 26.6242 14.3931 25.893 14.3931 24.9912Z" fill="#0D0E43"/>
<path d="M14.3931 41.9497V33.8097C14.3931 32.9079 15.1242 32.1768 16.026 32.1768H24.166C25.0678 32.1768 25.799 32.9079 25.799 33.8097V41.9497C25.799 42.8515 25.0678 43.5827 24.166 43.5827H16.026C15.1241 43.5827 14.3931 42.8515 14.3931 41.9497Z" fill="#0D0E43"/>
<path d="M14.3931 58.9082V50.7682C14.3931 49.8664 15.1242 49.1353 16.026 49.1353H24.166C25.0678 49.1353 25.799 49.8664 25.799 50.7682V58.9082C25.799 59.81 25.0678 60.5412 24.166 60.5412H16.026C15.1241 60.5412 14.3931 59.8101 14.3931 58.9082Z" fill="#0D0E43"/>
<path d="M19.4073 23.8363C19.406 23.8363 19.4049 23.8363 19.4037 23.8363C18.9374 23.8352 18.4951 23.6093 18.2204 23.2324L16.9869 21.5385C16.6435 21.0668 16.7474 20.406 17.2191 20.0626C17.6908 19.7193 18.3515 19.8232 18.6948 20.2947L19.41 21.277L21.5011 18.436C21.847 17.9661 22.5082 17.8658 22.9779 18.2115C23.4478 18.5573 23.5483 19.2186 23.2024 19.6885L20.5895 23.2384C20.314 23.6129 19.8721 23.8363 19.4073 23.8363Z" fill="#F6F9F9"/>
<path d="M19.4071 41.1639C19.4058 41.1639 19.4045 41.1639 19.4033 41.1639C18.9369 41.1627 18.4947 40.9369 18.2201 40.5597L16.9869 38.8661C16.6435 38.3944 16.7474 37.7336 17.2191 37.3902C17.6908 37.0469 18.3515 37.1508 18.6948 37.6223L19.41 38.6046L21.5011 35.7636C21.847 35.2939 22.5082 35.1934 22.9779 35.5391C23.4478 35.8849 23.5483 36.5462 23.2024 37.0161L20.5895 40.566C20.314 40.9408 19.8721 41.1639 19.4071 41.1639Z" fill="#F6F9F9"/>
<path d="M19.4068 57.7537C19.4056 57.7537 19.4044 57.7537 19.4033 57.7536C18.9371 57.7525 18.4946 57.5268 18.2201 57.15L16.9866 55.4558C16.6432 54.9841 16.7472 54.3235 17.2189 53.98C17.6909 53.6366 18.3514 53.7408 18.6947 54.2123L19.4097 55.1945L21.5009 52.3535C21.8468 51.8837 22.508 51.7832 22.9778 52.129C23.4477 52.4747 23.5482 53.1361 23.2023 53.606L20.5893 57.1559C20.3135 57.5303 19.8718 57.7537 19.4068 57.7537Z" fill="#F6F9F9"/>
<path d="M44.1182 19.7703H31.0595C30.4761 19.7703 30.0032 19.2974 30.0032 18.714C30.0032 18.1306 30.4761 17.6577 31.0595 17.6577H44.1182C44.7015 17.6577 45.1744 18.1306 45.1744 18.714C45.1744 19.2974 44.7015 19.7703 44.1182 19.7703Z" fill="#DDEAFB"/>
<path d="M37.5878 24.1844H31.0585C30.4751 24.1844 30.0022 23.7114 30.0022 23.1281C30.0022 22.5447 30.4751 22.0718 31.0585 22.0718H37.5878C38.1711 22.0718 38.6441 22.5447 38.6441 23.1281C38.6441 23.7114 38.1711 24.1844 37.5878 24.1844Z" fill="#DDEAFB"/>
<path d="M39.8202 36.7288H31.0585C30.4751 36.7288 30.0022 36.2559 30.0022 35.6725C30.0022 35.0891 30.4751 34.6162 31.0585 34.6162H39.8202C40.4036 34.6162 40.8765 35.0891 40.8765 35.6725C40.8765 36.2559 40.4036 36.7288 39.8202 36.7288Z" fill="#DDEAFB"/>
<path d="M37.5878 41.1429H31.0585C30.4751 41.1429 30.0022 40.6699 30.0022 40.0866C30.0022 39.5032 30.4751 39.0303 31.0585 39.0303H37.5878C38.1711 39.0303 38.6441 39.5032 38.6441 40.0866C38.6441 40.6699 38.1711 41.1429 37.5878 41.1429Z" fill="#DDEAFB"/>
<path d="M61.1004 27.5784L60.0632 26.2121L56.1824 23.7545L54.6907 23.5195L34.8193 54.9201C34.3399 55.6773 33.9881 56.5081 33.7781 57.3793C36.1958 57.4092 38.3903 58.7988 39.4511 60.9717C40.1489 60.4094 40.7495 59.7362 41.229 58.979L61.1004 27.5784Z" fill="#FC8086"/>
<path d="M63.9057 17.909L62.2288 16.8471C60.9216 16.0192 59.1908 16.4082 58.3634 17.7156L56.8257 20.1455L57.3162 21.1344L61.9824 24.0893L63.2355 24.2044L64.7741 21.773C65.601 20.4663 65.2123 18.7364 63.9057 17.909Z" fill="#8C9BA6"/>
<path d="M54.6929 23.5107L56.8291 20.1368L63.2399 24.1957L61.1037 27.5697L54.6929 23.5107Z" fill="#C9E2E7"/>
<path d="M39.451 60.9718L33.7929 65.5314C32.9948 66.1746 31.8351 65.4403 32.0753 64.4438L33.778 57.3794C36.1958 57.4092 38.3904 58.7989 39.451 60.9718Z" fill="#7C8B96"/>
<path d="M37.9665 59.0143L58.7968 26.12L57.012 24.9897L36.1816 57.884C36.8352 58.1594 37.4381 58.5412 37.9665 59.0143Z" fill="#FB636F"/>
</svg>
