<svg width="94" height="94" viewBox="0 0 94 94" fill="none" xmlns="http://www.w3.org/2000/svg">
<g clip-path="url(#clip0_402_3166)">
<path d="M94 47C94 46.429 93.9897 45.8602 93.9697 45.2942C93.0717 20.127 72.3864 0 47 0C21.6136 0 0.92825 20.127 0.0304766 45.2942C0.0102812 45.8602 0 46.429 0 47C0 72.9574 24.1429 92.2944 47 92.2944C70.2712 92.2944 94 72.9574 94 47Z" fill="#395093"/>
<path d="M47 90.5889C21.6139 90.5889 0.932289 70.4613 0.0341484 45.2944C0.0137695 45.861 0 46.4289 0 47.0002C0 72.9576 21.0426 94.0002 47 94.0002C72.9574 94.0002 94 72.9576 94 47.0002C94 46.4289 93.9862 45.861 93.966 45.2946C93.0677 70.4615 72.3861 90.5889 47 90.5889Z" fill="#3D559D"/>
<path d="M86.1823 45.2944C85.2893 24.4259 68.0884 7.78125 46.9999 7.78125C25.9114 7.78125 8.71053 24.4259 7.81753 45.2944C7.79329 45.8601 7.81734 83.7244 46.9999 83.7244C86.1825 83.7244 86.2065 45.8601 86.1823 45.2944Z" fill="white"/>
<path d="M47.0002 82.8078C25.9119 82.8078 8.71372 66.1628 7.82036 45.2944C7.79612 45.8603 7.78125 46.4283 7.78125 47C7.78125 68.66 25.3402 86.219 47.0002 86.219C68.6602 86.219 86.2191 68.6602 86.2191 47.0002C86.2191 46.4285 86.2041 45.8603 86.18 45.2946C85.2866 66.163 68.0885 82.8078 47.0002 82.8078Z" fill="#D5E0F2"/>
<path d="M61.2458 33.2398C60.1279 32.1373 58.3279 32.1496 57.2256 33.2673L50.5549 40.0304L51.2252 43.25L54.3412 44.2881L61.2735 37.2599C62.3758 36.1422 62.3635 34.3423 61.2458 33.2398Z" fill="#405B6C"/>
<path d="M42.976 40.2891L27.8475 26.8074C26.6752 25.7628 24.8784 25.8663 23.8339 27.0386C22.7895 28.2106 22.8928 30.0076 24.0651 31.0521L39.4916 44.7992L42.7061 43.727L42.976 40.2891Z" fill="#405B6C"/>
<path d="M67.1285 65.3293C66.8057 65.3293 66.4815 65.22 66.2149 64.9962L48.2093 49.8721C47.6084 49.3672 47.5302 48.4706 48.0351 47.8697C48.54 47.2684 49.4365 47.1904 50.0377 47.6954L68.0433 62.8197C68.6442 63.3246 68.7224 64.2213 68.2175 64.8222C67.9365 65.1569 67.5338 65.3293 67.1285 65.3293Z" fill="#86DCFF"/>
<path d="M39.491 44.7992L42.1457 47.165L45.5551 46.0065L45.3702 42.423L42.9756 40.2891C41.3095 41.2902 40.0484 42.8943 39.491 44.7992Z" fill="#2D4456"/>
<path d="M50.5554 40.0303L48.2983 42.3186V46.8104H51.8538L54.3419 44.288C53.6582 42.4381 52.2946 40.9192 50.5554 40.0303Z" fill="#2D4456"/>
<path d="M51.55 45.2942C50.8594 43.4528 49.0827 42.1421 47 42.1421C44.9174 42.1421 43.1407 43.4528 42.45 45.2942C42.251 45.825 42.4368 50.1525 47 50.1525C51.5633 50.1525 51.7491 45.825 51.55 45.2942Z" fill="#395093"/>
<path d="M47.0002 48.4467C44.9175 48.4467 43.1416 47.1359 42.4509 45.2944C42.2517 45.8252 42.1421 46.3997 42.1421 47C42.1421 49.6831 44.3171 51.8579 47 51.8579C49.683 51.8579 51.8579 49.6829 51.8579 47C51.8579 46.3997 51.7483 45.8252 51.5493 45.2944C50.8588 47.1357 49.0829 48.4467 47.0002 48.4467Z" fill="#3D559D"/>
<path d="M48.424 17.1796V12.7684C48.424 11.9819 47.7863 11.3442 46.9998 11.3442C46.2133 11.3442 45.5757 11.9819 45.5757 12.7684V17.1796C45.5757 17.9661 46.2131 18.6037 46.9998 18.6037C47.7865 18.6037 48.424 17.9661 48.424 17.1796Z" fill="#405B6C"/>
<path d="M45.5757 76.8206V81.2318C45.5757 82.0183 46.2131 82.656 46.9998 82.656C47.7865 82.656 48.424 82.0183 48.424 81.2318V76.8206C48.424 76.0341 47.7863 75.3965 46.9998 75.3965C46.2133 75.3965 45.5757 76.0341 45.5757 76.8206Z" fill="#405B6C"/>
<path d="M81.2321 48.4244C82.0188 48.4244 82.6562 47.7868 82.6562 47.0003C82.6562 46.2138 82.0186 45.5762 81.2321 45.5762H76.8209C76.0343 45.5762 75.3967 46.2138 75.3967 47.0003C75.3967 47.7868 76.0343 48.4244 76.8209 48.4244H81.2321Z" fill="#405B6C"/>
<path d="M12.7681 45.5762C11.9814 45.5762 11.344 46.2138 11.344 47.0003C11.344 47.7868 11.9814 48.4244 12.7681 48.4244H17.1793C17.966 48.4244 18.6035 47.7868 18.6035 47.0003C18.6035 46.2138 17.9659 45.5762 17.1793 45.5762H12.7681Z" fill="#405B6C"/>
</g>
<defs>
<clipPath id="clip0_402_3166">
<rect width="94" height="94" fill="white"/>
</clipPath>
</defs>
</svg>
